<?xml version="1.0" encoding="utf-8"?>
<!-- Generator: Adobe Illustrator 15.1.0, SVG Export Plug-In . SVG Version: 6.00 Build 0)  -->
<!DOCTYPE svg PUBLIC "-//W3C//DTD SVG 1.1//EN" "http://www.w3.org/Graphics/SVG/1.1/DTD/svg11.dtd">
<svg version="1.1" id="Layer_1" xmlns="http://www.w3.org/2000/svg" xmlns:xlink="http://www.w3.org/1999/xlink" x="0px" y="0px"
	 width="200px" height="200px" viewBox="0 0 200 200" enable-background="new 0 0 200 200" xml:space="preserve">
<path fill="#003A4A" d="M174.41,36.916c-3.384-1.799-11.652-6.184-20.881-11.079C136.4,33.204,95.292,50.879,93.297,51.738
	c-3.95,1.698-6.403,4.657-5.615,6.486c0.63,1.462,3.409,3.554,10.316,0.603c4.934-2.107,28.498-12.26,28.498-12.26l4.562,10.605
	c0,0-24.179,10.415-28.387,12.21c-5.827,2.485-7.564,6.117-6.564,8.438c1.14,2.65,4.87,4.313,11.167,1.605
	c3.617-1.558,28.148-12.111,28.148-12.111l4.346,10.105c0,0-24.174,10.411-28.38,12.21c-5.827,2.487-7.477,6.312-6.679,8.167
	c0.262,0.609,1.12,2.029,1.782,2.345c-5.581,2.402-9.681,4.167-9.927,4.273c-1.937,0.833-2.641,0.544-3.449-1.331
	c-1.983-4.609-18.613-43.261-18.613-43.261c-5.734,2.468-9.476,6.271-10.516,11.366c-1.46,7.163,1.724,17.002,7.479,24.914
	c-4.611,7.026-3.49,16.01,2.725,23.57c-13.775,7.599-19.752,26.128-20.871,39.707c-5.235-3.103-10.035-5.944-13.753-8.146
	c-2.876-1.699-5.19-3.614-6.999-5.813c2.987-16.719,11.642-34.887,27.928-47.536c-4.482-5.752-5.088-11.986-5.427-17.323
	c-4.158-0.396-5.983-2-7.537-3.756c-1.704-1.928-1.89-4.207-4.148-6.329c-1.84-1.73-7.026-3.489-12.144-4.01
	c0.982-3.18,4.067-5.773,8.132-6.781c2.465-0.61,5.368,1.847,7.663,2.87c2.993,1.339,7.638,1.434,9.941,0.376
	c3.563-1.635,3.933-3.839,6.794-9.723c0.658-1.356,2.561-2.625,6.256-4.214c8.017-3.448,52.405-22.534,70.219-30.195
	c-12.156-6.443-22.777-12.071-23.003-12.191c-5.789-3.069-11.76-4.626-17.744-4.626c-5.982,0-11.953,1.558-17.741,4.626
	c-0.477,0.253-47.748,25.297-57.17,30.312c-6.77,3.602-11.607,8.472-14.413,14.421c-2.352,4.986-3.273,10.731-2.705,17.12
	c0.383,4.322,5.405,61.199,5.742,64.999c0.59,6.629,2.488,12.531,5.639,17.542c3.156,5.009,7.652,9.261,13.37,12.646
	c12.229,7.237,36.961,21.895,49.458,29.334c5.768,3.431,11.764,5.168,17.823,5.168c6.061,0,12.056-1.737,17.82-5.168
	c12.65-7.526,37.33-22.157,49.456-29.334c5.716-3.381,10.214-7.637,13.369-12.646c3.154-5.011,5.051-10.913,5.641-17.542
	c0.343-3.876,5.368-60.754,5.745-64.999c0.569-6.387-0.354-12.128-2.702-17.112C186.024,45.395,181.184,40.523,174.41,36.916z
	 M93.521,129.774c0.526-2.168,4.393-5.218,5.768-6.404c1.291,7.968,5.322,12.836,10.313,13.733c1.528,0.273,3.503-0.929,4.081-1.476
	c0.769-0.727,0.838-0.891,0.313-1.582c-0.597-0.788-2.729-1.511-4.141-3.568c-2.19-3.194-3.7-7.975-3.577-11.847
	c5.889-4.118,9.196-5.065,12.051-4.521c4.147,0.791,8.295,6.043,8.832,10.809c0.5,4.465-2.412,10.219-9.398,15.095
	c-5.072,3.541-11.026,5.093-16.063,2.791C97.541,140.902,92.46,134.167,93.521,129.774z M177.168,67.185
	c-0.725,8.139-5.025,56.892-5.748,65c-0.774,8.725-4.472,14.601-11.988,19.048c-12.48,7.39-37.121,21.994-49.487,29.354
	c-7.142,4.252-13.752,4.248-20.891,0c-2.811-1.674-6.257-3.72-10.049-5.975c-3.407-2.02-5.183-5.005-5.942-7.12
	c-3.816-10.618-1.452-19.425,7.105-26.681c2.419-2.054,4.788-0.514,7.141,1.54c2.645,2.305,6.033,6.446,9.969,8.361
	c7.823,3.803,17.459,2.225,25.635-3.459c13.738-9.546,16.625-20.609,10.949-32.255c-2.267-4.651,2.413-9.596,6.813-12.485
	c4.468-2.935,5.839-3.804,10.154-6.608c6.871-4.458,6.962-5.511,5.214-9.582c-0.42-0.979-3.012-7.005-3.617-8.407
	c-2.056-4.78-2.11-8.736,2.042-10.799l-2.885-6.703l19.674-8.453C175.979,55.624,177.772,60.372,177.168,67.185z"/>
</svg>
