<?xml version="1.0" encoding="utf-8"?>
<!-- Generator: Adobe Illustrator 16.0.3, SVG Export Plug-In . SVG Version: 6.00 Build 0)  -->
<!DOCTYPE svg PUBLIC "-//W3C//DTD SVG 1.1//EN" "http://www.w3.org/Graphics/SVG/1.1/DTD/svg11.dtd">
<svg version="1.1" id="Layer_1" xmlns="http://www.w3.org/2000/svg" xmlns:xlink="http://www.w3.org/1999/xlink" x="0px" y="0px"
	 width="18px" height="12.48px" viewBox="0 0 18 12.48" enable-background="new 0 0 18 12.48" xml:space="preserve">
<g id="_x23_020201ff">
	<path fill="#3399FF" d="M11.265,0.58c0.391-0.294,0.842-0.522,1.332-0.58c-0.066,0.293-0.346,0.446-0.588,0.58
		c0.365-0.108,0.723-0.269,1.107-0.294c0.104-0.003,0.25,0,0.287,0.12c0.055,0.148-0.096,0.265-0.21,0.327
		c-0.421,0.217-0.907,0.249-1.335,0.448c0.881-0.083,1.758,0.26,2.426,0.821c0.795,0.656,1.321,1.604,1.514,2.613
		c0.703,0.188,1.464,0.052,2.125-0.229c-0.332,0.752-1.178,1.096-1.95,1.162C16.615,5.792,17.322,5.833,18,5.761
		c-0.537,0.597-1.371,0.828-2.152,0.811c-0.325,1.329-1.1,2.522-2.104,3.44c-1.953,1.77-4.658,2.617-7.272,2.447
		C3.958,12.307,1.485,11.069,0,9.012C0.13,9.088,0.24,9.194,0.363,9.278c1.149,0.832,2.68,1.096,4.047,0.725
		c0.828-0.213,1.582-0.678,2.183-1.283C6.208,8.744,5.781,8.676,5.501,8.387c-0.174-0.166-0.246-0.438-0.141-0.66
		c0.127-0.279,0.408-0.438,0.674-0.563C5.164,7.287,4.212,6.881,3.81,6.075c0.294-0.352,0.766-0.464,1.203-0.498
		c-0.51-0.148-1.032-0.33-1.418-0.71C3.289,4.579,3.089,4.18,3.029,3.765c0.36-0.066,0.723-0.148,1.092-0.134
		C3.283,3.196,2.517,2.365,2.583,1.363c1.588,0.58,3.15,1.239,4.643,2.038c0.521,0.286,0.956,0.701,1.383,1.11
		c0.413-1.074,0.857-2.15,1.529-3.093c0.359-0.496,0.785-0.957,1.309-1.283C11.425,0.298,11.341,0.44,11.265,0.58z"/>
</g>
</svg>
